<mxfile host="app.diagrams.net" modified="2022-08-18T11:34:07.161Z" agent="5.0 (Windows NT 10.0; Win64; x64) AppleWebKit/537.36 (KHTML, like Gecko) Chrome/104.0.0.0 Safari/537.36" etag="vq7EzbjpTb03sIUyQnCG" version="20.2.4" type="github">
  <diagram id="6RH_lN5skvweKhcu7jar" name="Sida-1">
    <mxGraphModel dx="1422" dy="882" grid="1" gridSize="10" guides="1" tooltips="1" connect="1" arrows="1" fold="1" page="1" pageScale="1" pageWidth="827" pageHeight="1169" math="0" shadow="0">
      <root>
        <mxCell id="0" />
        <mxCell id="1" parent="0" />
        <mxCell id="xuaBj4YhSufCj4W7h0WN-50" value="" style="rounded=0;whiteSpace=wrap;html=1;fontSize=14;fillColor=none;" vertex="1" parent="1">
          <mxGeometry x="58" y="550" width="724" height="450" as="geometry" />
        </mxCell>
        <mxCell id="xuaBj4YhSufCj4W7h0WN-51" style="edgeStyle=orthogonalEdgeStyle;rounded=0;orthogonalLoop=1;jettySize=auto;html=1;entryX=0.5;entryY=0;entryDx=0;entryDy=0;fontSize=14;" edge="1" parent="1" source="xuaBj4YhSufCj4W7h0WN-47" target="xuaBj4YhSufCj4W7h0WN-50">
          <mxGeometry relative="1" as="geometry" />
        </mxCell>
        <mxCell id="xuaBj4YhSufCj4W7h0WN-47" value="" style="rounded=0;whiteSpace=wrap;html=1;fillColor=none;strokeWidth=2;" vertex="1" parent="1">
          <mxGeometry x="60" y="50" width="720" height="470" as="geometry" />
        </mxCell>
        <mxCell id="xuaBj4YhSufCj4W7h0WN-10" style="edgeStyle=orthogonalEdgeStyle;rounded=0;orthogonalLoop=1;jettySize=auto;html=1;entryX=0;entryY=0.5;entryDx=0;entryDy=0;" edge="1" parent="1" source="xuaBj4YhSufCj4W7h0WN-1" target="xuaBj4YhSufCj4W7h0WN-3">
          <mxGeometry relative="1" as="geometry" />
        </mxCell>
        <mxCell id="xuaBj4YhSufCj4W7h0WN-1" value="Spelare som hoppar och faller vid knapp/skärm tryck." style="rounded=1;whiteSpace=wrap;html=1;strokeWidth=3;" vertex="1" parent="1">
          <mxGeometry x="70" y="80" width="120" height="60" as="geometry" />
        </mxCell>
        <mxCell id="xuaBj4YhSufCj4W7h0WN-13" value="" style="edgeStyle=orthogonalEdgeStyle;rounded=0;orthogonalLoop=1;jettySize=auto;html=1;" edge="1" parent="1" source="xuaBj4YhSufCj4W7h0WN-3" target="xuaBj4YhSufCj4W7h0WN-12">
          <mxGeometry relative="1" as="geometry" />
        </mxCell>
        <mxCell id="xuaBj4YhSufCj4W7h0WN-3" value="Ett golv som ska avsluta och starta om spelet" style="rounded=1;whiteSpace=wrap;html=1;" vertex="1" parent="1">
          <mxGeometry x="240" y="60" width="120" height="100" as="geometry" />
        </mxCell>
        <mxCell id="xuaBj4YhSufCj4W7h0WN-15" value="" style="edgeStyle=orthogonalEdgeStyle;rounded=0;orthogonalLoop=1;jettySize=auto;html=1;" edge="1" parent="1" source="xuaBj4YhSufCj4W7h0WN-12" target="xuaBj4YhSufCj4W7h0WN-14">
          <mxGeometry relative="1" as="geometry" />
        </mxCell>
        <mxCell id="xuaBj4YhSufCj4W7h0WN-12" value="Bygga rum av golvet med hjälp av qwerty knapparna" style="whiteSpace=wrap;html=1;rounded=1;" vertex="1" parent="1">
          <mxGeometry x="440" y="80" width="120" height="60" as="geometry" />
        </mxCell>
        <mxCell id="xuaBj4YhSufCj4W7h0WN-17" value="" style="edgeStyle=orthogonalEdgeStyle;rounded=0;orthogonalLoop=1;jettySize=auto;html=1;" edge="1" parent="1" source="xuaBj4YhSufCj4W7h0WN-14" target="xuaBj4YhSufCj4W7h0WN-16">
          <mxGeometry relative="1" as="geometry">
            <Array as="points">
              <mxPoint x="700" y="240" />
            </Array>
          </mxGeometry>
        </mxCell>
        <mxCell id="xuaBj4YhSufCj4W7h0WN-14" value="Hinder som rör sig från höger till vänster startar om spelet om vi nuddar" style="whiteSpace=wrap;html=1;rounded=1;" vertex="1" parent="1">
          <mxGeometry x="640" y="80" width="120" height="60" as="geometry" />
        </mxCell>
        <mxCell id="xuaBj4YhSufCj4W7h0WN-19" value="" style="edgeStyle=orthogonalEdgeStyle;rounded=0;orthogonalLoop=1;jettySize=auto;html=1;" edge="1" parent="1" source="xuaBj4YhSufCj4W7h0WN-16" target="xuaBj4YhSufCj4W7h0WN-18">
          <mxGeometry relative="1" as="geometry" />
        </mxCell>
        <mxCell id="xuaBj4YhSufCj4W7h0WN-16" value="Hinder ska vara framerate oberoende" style="whiteSpace=wrap;html=1;rounded=1;" vertex="1" parent="1">
          <mxGeometry x="640" y="200" width="120" height="60" as="geometry" />
        </mxCell>
        <mxCell id="xuaBj4YhSufCj4W7h0WN-21" value="" style="edgeStyle=orthogonalEdgeStyle;rounded=0;orthogonalLoop=1;jettySize=auto;html=1;" edge="1" parent="1" source="xuaBj4YhSufCj4W7h0WN-18" target="xuaBj4YhSufCj4W7h0WN-20">
          <mxGeometry relative="1" as="geometry" />
        </mxCell>
        <mxCell id="xuaBj4YhSufCj4W7h0WN-18" value="Hinder blir prefab och vi bygger en bana med 10 hinder" style="whiteSpace=wrap;html=1;rounded=1;" vertex="1" parent="1">
          <mxGeometry x="440" y="200" width="120" height="60" as="geometry" />
        </mxCell>
        <mxCell id="xuaBj4YhSufCj4W7h0WN-23" value="" style="edgeStyle=orthogonalEdgeStyle;rounded=0;orthogonalLoop=1;jettySize=auto;html=1;" edge="1" parent="1" source="xuaBj4YhSufCj4W7h0WN-20" target="xuaBj4YhSufCj4W7h0WN-22">
          <mxGeometry relative="1" as="geometry" />
        </mxCell>
        <mxCell id="xuaBj4YhSufCj4W7h0WN-25" value="" style="edgeStyle=orthogonalEdgeStyle;rounded=0;orthogonalLoop=1;jettySize=auto;html=1;" edge="1" parent="1" source="xuaBj4YhSufCj4W7h0WN-20" target="xuaBj4YhSufCj4W7h0WN-24">
          <mxGeometry relative="1" as="geometry" />
        </mxCell>
        <mxCell id="xuaBj4YhSufCj4W7h0WN-20" value="Oändlig bana" style="whiteSpace=wrap;html=1;rounded=1;" vertex="1" parent="1">
          <mxGeometry x="240" y="200" width="120" height="60" as="geometry" />
        </mxCell>
        <mxCell id="xuaBj4YhSufCj4W7h0WN-26" value="" style="edgeStyle=orthogonalEdgeStyle;rounded=0;orthogonalLoop=1;jettySize=auto;html=1;" edge="1" parent="1" source="xuaBj4YhSufCj4W7h0WN-22" target="xuaBj4YhSufCj4W7h0WN-24">
          <mxGeometry relative="1" as="geometry" />
        </mxCell>
        <mxCell id="xuaBj4YhSufCj4W7h0WN-22" value="Slumpa hinderposition" style="whiteSpace=wrap;html=1;rounded=1;" vertex="1" parent="1">
          <mxGeometry x="140" y="340" width="120" height="60" as="geometry" />
        </mxCell>
        <mxCell id="xuaBj4YhSufCj4W7h0WN-27" value="" style="edgeStyle=orthogonalEdgeStyle;rounded=0;orthogonalLoop=1;jettySize=auto;html=1;" edge="1" parent="1" source="xuaBj4YhSufCj4W7h0WN-24" target="xuaBj4YhSufCj4W7h0WN-22">
          <mxGeometry relative="1" as="geometry" />
        </mxCell>
        <mxCell id="xuaBj4YhSufCj4W7h0WN-24" value="Ändra hastighet?" style="whiteSpace=wrap;html=1;rounded=1;" vertex="1" parent="1">
          <mxGeometry x="340" y="340" width="120" height="60" as="geometry" />
        </mxCell>
        <mxCell id="xuaBj4YhSufCj4W7h0WN-33" value="" style="edgeStyle=orthogonalEdgeStyle;rounded=0;orthogonalLoop=1;jettySize=auto;html=1;" edge="1" parent="1" source="xuaBj4YhSufCj4W7h0WN-28" target="xuaBj4YhSufCj4W7h0WN-32">
          <mxGeometry relative="1" as="geometry" />
        </mxCell>
        <mxCell id="xuaBj4YhSufCj4W7h0WN-28" value="Spelar poäng baserad på tid och spelhastighet" style="rounded=1;whiteSpace=wrap;html=1;strokeWidth=2;" vertex="1" parent="1">
          <mxGeometry x="80" y="600" width="120" height="60" as="geometry" />
        </mxCell>
        <mxCell id="xuaBj4YhSufCj4W7h0WN-35" value="" style="edgeStyle=orthogonalEdgeStyle;rounded=0;orthogonalLoop=1;jettySize=auto;html=1;" edge="1" parent="1" source="xuaBj4YhSufCj4W7h0WN-32" target="xuaBj4YhSufCj4W7h0WN-34">
          <mxGeometry relative="1" as="geometry" />
        </mxCell>
        <mxCell id="xuaBj4YhSufCj4W7h0WN-32" value="User Interface(UI)&lt;br&gt;Visa poäng" style="whiteSpace=wrap;html=1;rounded=1;" vertex="1" parent="1">
          <mxGeometry x="260" y="600" width="120" height="60" as="geometry" />
        </mxCell>
        <mxCell id="xuaBj4YhSufCj4W7h0WN-37" value="" style="edgeStyle=orthogonalEdgeStyle;rounded=0;orthogonalLoop=1;jettySize=auto;html=1;" edge="1" parent="1" source="xuaBj4YhSufCj4W7h0WN-34" target="xuaBj4YhSufCj4W7h0WN-36">
          <mxGeometry relative="1" as="geometry" />
        </mxCell>
        <mxCell id="xuaBj4YhSufCj4W7h0WN-34" value="Spelare får liv" style="whiteSpace=wrap;html=1;rounded=1;" vertex="1" parent="1">
          <mxGeometry x="450" y="600" width="120" height="60" as="geometry" />
        </mxCell>
        <mxCell id="xuaBj4YhSufCj4W7h0WN-39" value="" style="edgeStyle=orthogonalEdgeStyle;rounded=0;orthogonalLoop=1;jettySize=auto;html=1;" edge="1" parent="1" source="xuaBj4YhSufCj4W7h0WN-36" target="xuaBj4YhSufCj4W7h0WN-38">
          <mxGeometry relative="1" as="geometry" />
        </mxCell>
        <mxCell id="xuaBj4YhSufCj4W7h0WN-36" value="startar om efter att spelare fått slut på liv" style="whiteSpace=wrap;html=1;rounded=1;" vertex="1" parent="1">
          <mxGeometry x="640" y="600" width="120" height="60" as="geometry" />
        </mxCell>
        <mxCell id="xuaBj4YhSufCj4W7h0WN-38" value="Visa antal liv i UI m.h.a. delegate" style="whiteSpace=wrap;html=1;rounded=1;" vertex="1" parent="1">
          <mxGeometry x="640" y="720" width="120" height="60" as="geometry" />
        </mxCell>
        <mxCell id="xuaBj4YhSufCj4W7h0WN-43" value="Oscillerande hinder" style="rounded=1;whiteSpace=wrap;html=1;" vertex="1" parent="1">
          <mxGeometry x="240" y="440" width="120" height="60" as="geometry" />
        </mxCell>
        <mxCell id="xuaBj4YhSufCj4W7h0WN-44" value="" style="endArrow=classic;html=1;rounded=0;entryX=0.5;entryY=0;entryDx=0;entryDy=0;" edge="1" parent="1" target="xuaBj4YhSufCj4W7h0WN-43">
          <mxGeometry width="50" height="50" relative="1" as="geometry">
            <mxPoint x="300" y="370" as="sourcePoint" />
            <mxPoint x="440" y="550" as="targetPoint" />
          </mxGeometry>
        </mxCell>
        <mxCell id="xuaBj4YhSufCj4W7h0WN-49" value="&lt;font style=&quot;font-size: 14px;&quot;&gt;&lt;b&gt;Lära sig grundstenarna i spelprogrammering&lt;/b&gt;&lt;/font&gt;" style="text;html=1;strokeColor=none;fillColor=none;align=center;verticalAlign=middle;whiteSpace=wrap;rounded=0;" vertex="1" parent="1">
          <mxGeometry x="520" y="355" width="220" height="155" as="geometry" />
        </mxCell>
      </root>
    </mxGraphModel>
  </diagram>
</mxfile>
